<?xml version="1.0" standalone="no"?>
<!DOCTYPE svg PUBLIC "-//W3C//DTD SVG 20010904//EN"
 "http://www.w3.org/TR/2001/REC-SVG-20010904/DTD/svg10.dtd">
<svg version="1.0" xmlns="http://www.w3.org/2000/svg"
 width="281.000000pt" height="283.000000pt" viewBox="0 0 281.000000 283.000000"
 preserveAspectRatio="xMidYMid meet">
<metadata>
Created by potrace 1.16, written by Peter Selinger 2001-2019
</metadata>
<g transform="translate(0.000000,283.000000) scale(0.100000,-0.100000)"
fill="#000000" stroke="none">
<path d="M1245 2808 c-143 -13 -379 -81 -479 -138 -309 -175 -507 -388 -636
-681 -53 -119 -50 -127 5 -14 l43 90 1 -75 1 -75 17 33 c28 57 23 28 -8 -49
-17 -40 -42 -121 -57 -179 -24 -96 -27 -122 -26 -300 0 -230 15 -312 93 -507
22 -57 21 -70 -3 -25 -15 26 -15 25 -16 -43 l-1 -70 -34 65 c-44 85 -44 73 0
-24 19 -43 39 -74 45 -71 5 3 7 0 4 -8 -8 -22 108 -187 198 -282 119 -126 282
-244 440 -318 85 -40 290 -95 393 -105 100 -10 298 -6 360 7 32 7 35 9 13 10
-24 1 -28 5 -28 31 0 28 -3 30 -37 31 -24 0 0 8 62 19 275 49 506 166 702 353
104 100 161 169 229 279 47 77 58 84 23 15 -16 -31 -22 -58 -20 -102 1 -56 -1
-64 -39 -113 -22 -29 -40 -55 -40 -59 0 -14 102 125 149 203 136 225 196 445
195 719 -1 233 -41 402 -143 610 -54 109 -161 271 -191 290 -7 5 6 -18 30 -49
41 -55 43 -59 41 -124 -1 -53 3 -73 19 -97 11 -16 20 -34 20 -40 0 -5 -16 17
-36 49 -206 342 -548 576 -944 646 -74 13 -93 19 -62 19 40 1 42 2 42 31 0 24
4 30 23 31 12 1 2 5 -23 10 -59 13 -225 16 -325 7z m-15 -343 c25 -8 34 -13
20 -10 -161 33 -242 29 -345 -19 -80 -36 -128 -86 -174 -179 -53 -109 -65
-176 -58 -339 7 -177 40 -303 129 -500 33 -72 43 -81 53 -48 10 33 74 70 120
70 35 0 42 4 56 33 21 43 83 78 132 75 35 -2 40 1 60 37 29 53 96 88 152 80
39 -5 40 -4 56 33 31 74 122 116 195 89 18 -6 22 -3 28 24 3 18 24 50 49 74
48 49 99 64 159 48 43 -12 44 -13 -21 72 -109 144 -266 284 -411 369 -59 35
-62 35 -91 21 -16 -9 -29 -23 -29 -31 0 -11 -6 -14 -16 -10 -9 3 -20 6 -26 6
-5 0 0 16 12 37 17 29 19 38 8 45 -9 7 -8 8 5 4 59 -19 67 -18 95 12 21 23 32
28 45 21 15 -9 14 -12 -4 -43 l-20 -34 73 -48 c156 -100 316 -261 453 -455 40
-56 37 -50 88 -164 84 -184 128 -334 143 -480 3 -38 15 -87 25 -107 15 -30 16
-38 5 -38 -18 0 -31 -77 -15 -96 9 -12 8 -18 -7 -29 -10 -8 -22 -15 -26 -15
-3 0 -8 -6 -11 -12 -2 -7 -2 -2 0 12 2 14 -3 34 -11 45 -19 25 -20 36 -2 29
19 -7 33 85 15 97 -10 6 -9 12 6 29 18 20 18 26 6 108 -22 158 -73 319 -138
444 l-28 53 -3 -34 c-5 -53 -47 -108 -97 -127 -43 -16 -101 -16 -137 0 -14 7
-18 3 -18 -16 0 -34 -63 -104 -106 -118 -20 -7 -54 -9 -78 -6 -41 6 -42 6 -55
-29 -18 -52 -78 -89 -142 -87 -44 1 -50 -2 -64 -28 -23 -45 -71 -74 -125 -74
-41 -1 -50 -5 -63 -28 -20 -35 -74 -68 -109 -68 -16 0 -28 -3 -28 -6 0 -4 33
-45 72 -92 89 -105 226 -227 307 -272 14 -8 28 -18 31 -21 11 -13 128 -67 190
-87 36 -12 101 -26 145 -30 76 -9 77 -9 24 -11 -76 -1 -197 31 -299 81 -47 23
-87 44 -90 47 -3 4 -27 21 -53 40 -94 65 -193 161 -289 281 -34 41 -74 81 -91
89 -37 18 -67 66 -67 107 0 17 -22 78 -49 135 -94 200 -134 362 -132 542 2
191 38 303 132 402 51 54 132 100 202 115 56 12 181 4 237 -15z m-245 -114
c106 -48 135 -173 59 -255 -57 -61 -140 -66 -206 -11 -41 34 -57 68 -58 123 0
72 36 122 107 148 49 17 51 17 98 -5z m237 -363 c102 -58 102 -208 0 -266
-133 -75 -279 64 -212 202 39 82 130 109 212 64z m425 -691 c43 -29 63 -67 63
-122 0 -150 -166 -210 -263 -95 -36 42 -43 90 -22 146 17 44 61 87 100 97 33
9 88 -3 122 -26z m200 -333 c51 -29 63 -55 63 -127 0 -91 -54 -147 -140 -147
-90 0 -150 59 -150 147 0 60 28 107 80 134 48 26 95 24 147 -7z"/>
<path d="M1929 1797 c-15 -20 -19 -21 -80 -8 -47 9 -72 9 -92 2 -16 -6 -39
-11 -53 -11 -20 0 -24 -5 -24 -31 0 -71 57 -119 140 -119 82 0 140 55 140 132
0 47 -12 60 -31 35z"/>
<path d="M1493 1647 c-51 -12 -58 -28 -36 -74 32 -69 123 -94 190 -53 53 32
80 104 49 129 -11 9 -19 9 -34 0 -16 -10 -29 -10 -60 -1 -45 14 -51 14 -109
-1z"/>
<path d="M1271 1518 c-33 -15 -38 -22 -34 -40 18 -70 85 -109 154 -89 43 13
89 62 89 95 0 27 -35 65 -42 44 -4 -10 -18 -10 -66 -2 -53 9 -68 7 -101 -8z"/>
<path d="M1090 1413 c-11 -8 -27 -12 -35 -9 -22 8 -19 -32 5 -72 47 -76 166
-64 212 22 8 15 6 23 -13 37 -13 10 -38 19 -54 19 -17 0 -44 4 -62 9 -23 7
-37 5 -53 -6z"/>
<path d="M898 1309 c-53 -20 -23 -96 46 -119 43 -14 92 4 125 46 l23 29 -28
22 c-15 12 -35 21 -43 21 -9 0 -34 2 -56 5 -22 4 -52 2 -67 -4z"/>
<path d="M859 2230 c-19 -10 -37 -16 -41 -13 -17 10 -7 -61 13 -88 39 -56 99
-72 157 -43 48 23 72 60 72 109 0 53 -5 57 -40 37 -26 -15 -32 -15 -78 -1 -45
15 -51 15 -83 -1z"/>
<path d="M1250 1896 c0 -23 -47 -31 -97 -17 -38 10 -49 9 -88 -9 -50 -23 -51
-26 -29 -73 33 -69 134 -91 193 -42 35 30 55 82 45 119 -7 30 -24 45 -24 22z"/>
<path d="M1670 1207 c0 -27 -43 -38 -100 -26 -35 7 -55 7 -70 -1 -11 -6 -24
-9 -28 -6 -4 3 -14 1 -22 -4 -11 -7 -11 -14 1 -46 26 -68 94 -95 167 -65 55
23 90 108 62 151 -8 13 -10 12 -10 -3z"/>
<path d="M1865 854 c-11 -17 -37 -20 -104 -11 -25 3 -54 1 -65 -5 -15 -8 -21
-8 -24 1 -7 21 -22 11 -22 -14 0 -67 69 -123 136 -111 65 13 120 84 106 139
-5 21 -14 22 -27 1z"/>
</g>
</svg>
